[Header]
FileType HTR
DataType HTRS
FileVersion 1
NumSegments 64
NumFrames 4
DataFrameRate 30
EulerRotationOrder ZYX
CalibrationUnits mm
RotationUnits Degrees
GlobalAxisofGravity Y
BoneLengthAxis Y
ScaleFactor 1.0
[SegmentNames&Hierarchy]
Hips	GLOBAL
Spine	Hips
Spine1	Spine
Spine2	Spine1
Neck	Spine2
Head	Neck
LeftEye	Head
RightEye	Head
LeftShoulder	Spine2
LeftArm	LeftShoulder
LeftForeArm	LeftArm
LeftHand	LeftForeArm
LeftHandThumb1	LeftHand
LeftHandThumb2	LeftHandThumb1
LeftHandThumb3	LeftHandThumb2
LeftHandThumb4	LeftHandThumb3
LeftHandIndex1	LeftHand
LeftHandIndex2	LeftHandIndex1
LeftHandIndex3	LeftHandIndex2
LeftHandIndex4	LeftHandIndex3
LeftHandMiddle1	LeftHand
LeftHandMiddle2	LeftHandMiddle1
LeftHandMiddle3	LeftHandMiddle2
LeftHandMiddle4	LeftHandMiddle3
LeftHandRing1	LeftHand
LeftHandRing2	LeftHandRing1
LeftHandRing3	LeftHandRing2
LeftHandRing4	LeftHandRing3
LeftHandPinky1	LeftHand
LeftHandPinky2	LeftHandPinky1
LeftHandPinky3	LeftHandPinky2
LeftHandPinky4	LeftHandPinky3
RightShoulder	Spine2
RightArm	RightShoulder
RightForeArm	RightArm
RightHand	RightForeArm
RightHandPinky1	RightHand
RightHandPinky2	RightHandPinky1
RightHandPinky3	RightHandPinky2
RightHandPinky4	RightHandPinky3
RightHandRing1	RightHand
RightHandRing2	RightHandRing1
RightHandRing3	RightHandRing2
RightHandRing4	RightHandRing3
RightHandMiddle1	RightHand
RightHandMiddle2	RightHandMiddle1
RightHandMiddle3	RightHandMiddle2
RightHandMiddle4	RightHandMiddle3
RightHandIndex1	RightHand
RightHandIndex2	RightHandIndex1
RightHandIndex3	RightHandIndex2
RightHandIndex4	RightHandIndex3
RightHandThumb1	RightHand
RightHandThumb2	RightHandThumb1
RightHandThumb3	RightHandThumb2
RightHandThumb4	RightHandThumb3
LeftUpLeg	Hips
LeftLeg	LeftUpLeg
LeftFoot	LeftLeg
LeftToeBase	LeftFoot
RightUpLeg	Hips
RightLeg	RightUpLeg
RightFoot	RightLeg
RightToeBase	RightFoot
[BasePosition]
Hips	0	0	0	0	0	0	1
Spine	0	0	0	0	0	0	1
Spine1	0	0	0	0	0	0	1
Spine2	0	0	0	0	0	0	1
Neck	0	0	0	0	0	0	1
Head	0	0	0	0	0	0	1
LeftEye	0	0	0	0	0	0	1
RightEye	0	0	0	0	0	0	1
LeftShoulder	0	0	0	0	0	0	1
LeftArm	0	0	0	0	0	0	1
LeftForeArm	0	0	0	0	0	0	1
LeftHand	0	0	0	0	0	0	1
LeftHandThumb1	0	0	0	0	0	0	1
LeftHandThumb2	0	0	0	0	0	0	1
LeftHandThumb3	0	0	0	0	0	0	1
LeftHandThumb4	0	0	0	0	0	0	1
LeftHandIndex1	0	0	0	0	0	0	1
LeftHandIndex2	0	0	0	0	0	0	1
LeftHandIndex3	0	0	0	0	0	0	1
LeftHandIndex4	0	0	0	0	0	0	1
LeftHandMiddle1	0	0	0	0	0	0	1
LeftHandMiddle2	0	0	0	0	0	0	1
LeftHandMiddle3	0	0	0	0	0	0	1
LeftHandMiddle4	0	0	0	0	0	0	1
LeftHandRing1	0	0	0	0	0	0	1
LeftHandRing2	0	0	0	0	0	0	1
LeftHandRing3	0	0	0	0	0	0	1
LeftHandRing4	0	0	0	0	0	0	1
LeftHandPinky1	0	0	0	0	0	0	1
LeftHandPinky2	0	0	0	0	0	0	1
LeftHandPinky3	0	0	0	0	0	0	1
LeftHandPinky4	0	0	0	0	0	0	1
RightShoulder	0	0	0	0	0	0	1
RightArm	0	0	0	0	0	0	1
RightForeArm	0	0	0	0	0	0	1
RightHand	0	0	0	0	0	0	1
RightHandPinky1	0	0	0	0	0	0	1
RightHandPinky2	0	0	0	0	0	0	1
RightHandPinky3	0	0	0	0	0	0	1
RightHandPinky4	0	0	0	0	0	0	1
RightHandRing1	0	0	0	0	0	0	1
RightHandRing2	0	0	0	0	0	0	1
RightHandRing3	0	0	0	0	0	0	1
RightHandRing4	0	0	0	0	0	0	1
RightHandMiddle1	0	0	0	0	0	0	1
RightHandMiddle2	0	0	0	0	0	0	1
RightHandMiddle3	0	0	0	0	0	0	1
RightHandMiddle4	0	0	0	0	0	0	1
RightHandIndex1	0	0	0	0	0	0	1
RightHandIndex2	0	0	0	0	0	0	1
RightHandIndex3	0	0	0	0	0	0	1
RightHandIndex4	0	0	0	0	0	0	1
RightHandThumb1	0	0	0	0	0	0	1
RightHandThumb2	0	0	0	0	0	0	1
RightHandThumb3	0	0	0	0	0	0	1
RightHandThumb4	0	0	0	0	0	0	1
LeftUpLeg	0	0	0	0	0	0	1
LeftLeg	0	0	0	0	0	0	1
LeftFoot	0	0	0	0	0	0	1
LeftToeBase	0	0	0	0	0	0	1
RightUpLeg	0	0	0	0	0	0	1
RightLeg	0	0	0	0	0	0	1
RightFoot	0	0	0	0	0	0	1
RightToeBase	0	0	0	0	0	0	1
[Hips]
17	-4.638002396	1014.34729	-0.4020547867	5.937937737	-4.388078213	-7.997601509	1.0
18	-6.348857403	1013.039246	-1.994488239	6.547641754	-3.950738192	-8.465468407	1.0
19	-7.890267849	1012.650024	-2.671267986	6.9755826	-3.421041012	-8.856016159	1.0
20	-9.229070663	1012.97113	-2.587182522	7.208177567	-2.95762825	-9.188907623	1.0
[Spine]
17	0	101.8159943	1.315000057	5.105239391	1.528522611	2.399420023	1.0
18	0	101.8159943	1.315000057	5.233774662	1.614696026	2.265479088	1.0
19	0	101.8159943	1.315000057	5.323410034	1.654807568	2.110606909	1.0
20	0	101.8159943	1.315000057	5.328078747	1.656162024	1.98854363	1.0
[Spine1]
17	0	100.8349991	-10.00800037	3.01795125	0.4230817854	0.7480493188	1.0
18	0	100.8349991	-10.00800037	3.102667809	0.5403420925	0.6161026359	1.0
19	0	100.8349991	-10.00800037	3.175671101	0.5933955312	0.4665492177	1.0
20	0	100.8349991	-10.00800037	3.191382408	0.5898561478	0.33911708	1.0
[Spine2]
17	0	91	-13.73399925	2.995866776	0.4510591924	0.7638146877	1.0
18	0	91	-13.73399925	3.081415415	0.5737030506	0.6320576668	1.0
19	0	91	-13.73399925	3.155188799	0.6336262226	0.4819918573	1.0
20	0	91	-13.73399925	3.171519995	0.6357859969	0.3537969291	1.0
[Neck]
17	0	166.7169952	-25.16200066	6.046223164	0.7554553151	-3.655904293	1.0
18	0	166.7169952	-25.16200066	6.667086601	0.9847381711	-4.272392273	1.0
19	0	166.7169952	-25.16200066	6.804920673	1.03701508	-4.411488533	1.0
20	0	166.7169952	-25.16200066	6.756475925	0.975404501	-4.281160831	1.0
[Head]
17	0	96.17900085	16.84999847	-26.32670593	2.737377167	-6.021680832	1.0
18	0	96.17900085	16.84999847	-25.67491341	4.586165905	-5.098652363	1.0
19	0	96.17900085	16.84999847	-23.76995468	5.852436543	-3.198641062	1.0
20	0	96.17900085	16.84999847	-21.71029854	6.298980713	-1.298394322	1.0
[LeftEye]
17	30.6760006	64.09500122	92.83599854	0	0	0	1.0
18	30.6760006	64.09500122	92.83599854	0	0	0	1.0
19	30.6760006	64.09500122	92.83599854	0	0	0	1.0
20	30.6760006	64.09500122	92.83599854	0	0	0	1.0
[RightEye]
17	-30.6760006	64.09500122	92.83499908	0	0	0	1.0
18	-30.6760006	64.09500122	92.83499908	0	0	0	1.0
19	-30.6760006	64.09500122	92.83499908	0	0	0	1.0
20	-30.6760006	64.09500122	92.83499908	0	0	0	1.0
[LeftShoulder]
17	45.70400238	109.4599991	-26.28000069	4.750208378	-18.85540771	-11.84753799	1.0
18	45.70400238	109.4599991	-26.28000069	5.212193966	-17.47144127	-14.78727818	1.0
19	45.70400238	109.4599991	-26.28000069	5.429607868	-16.902174	-16.17751503	1.0
20	45.70400238	109.4599991	-26.28000069	5.467606068	-16.8764801	-16.43866539	1.0
[LeftArm]
17	105.923996	-5.24600029	-22.32099915	17.07561684	-13.18144512	-63.62782669	1.0
18	105.923996	-5.24600029	-22.32099915	16.91946983	-13.73655796	-59.98628998	1.0
19	105.923996	-5.24600029	-22.32099915	16.34247398	-13.46280479	-57.89673996	1.0
20	105.923996	-5.24600029	-22.32099915	15.54061985	-12.88237286	-57.19512177	1.0
[LeftForeArm]
17	278.414978	-0.0009999999311	0	2.117252734e-06	-1.175172925	-0.0002137045667	1.0
18	278.414978	-0.0009999999311	0	-4.59696048e-06	-2.196230412	-0.0002081483981	1.0
19	278.414978	-0.0009999999311	0	-5.633535238e-07	-4.417624474	-0.0002007021103	1.0
20	278.414978	-0.0009999999311	0	2.647504687e-07	-6.609043121	-0.0001974981278	1.0
[LeftHand]
17	283.2879944	0	0	-27.69846153	-3.579578161	-5.325534821	1.0
18	283.2879944	0	0	-28.04815483	-5.203714848	-2.514039755	1.0
19	283.2879944	0	0	-32.90187836	-8.401503563	-0.03518142179	1.0
20	283.2879944	0	0	-37.74909973	-10.07944012	1.078638077	1.0
[LeftHandThumb1]
17	24.6609993	-15.75	26.8239994	-6.599167824	-0.2880693376	7.154641151	1.0
18	24.6609993	-15.75	26.8239994	-9.494277	-0.5005918741	9.072743416	1.0
19	24.6609993	-15.75	26.8239994	-10.58955097	-0.6517664194	9.755784035	1.0
20	24.6609993	-15.75	26.8239994	-9.762699127	-0.4743415713	9.292965889	1.0
[LeftHandThumb2]
17	32.29800034	-18.64699936	18.64699936	19.66739655	22.38990593	17.14163208	1.0
18	32.29800034	-18.64699936	18.64699936	19.59760666	22.95445251	15.89132881	1.0
19	32.29800034	-18.64699936	18.64699936	19.57581329	22.97891045	15.57193565	1.0
20	32.29800034	-18.64699936	18.64699936	19.6050415	22.49123764	16.14123917	1.0
[LeftHandThumb3]
17	26.52600098	-15.31499958	15.31499958	-11.77823734	3.165727139	9.226751328	1.0
18	26.52600098	-15.31499958	15.31499958	-11.35948563	2.527100325	9.217158318	1.0
19	26.52600098	-15.31499958	15.31499958	-11.19653988	2.299276352	9.117202759	1.0
20	26.52600098	-15.31499958	15.31499958	-11.33899403	2.530033112	9.040095329	1.0
[LeftHandThumb4]
17	19.54599953	-11.28499985	11.28499985	0	0	0	1.0
18	19.54599953	-11.28499985	11.28499985	0	0	0	1.0
19	19.54599953	-11.28499985	11.28499985	0	0	0	1.0
20	19.54599953	-11.28499985	11.28499985	0	0	0	1.0
[LeftHandIndex1]
17	91.09299469	-5.170999527	22.60099792	0.3075066209	-0.6798248291	-9.860125542	1.0
18	91.09299469	-5.170999527	22.60099792	0.101139687	-0.7916948795	-9.988994598	1.0
19	91.09299469	-5.170999527	22.60099792	-0.01431454066	-0.8804623485	-9.945106506	1.0
20	91.09299469	-5.170999527	22.60099792	-0.02251992188	-0.8818612099	-10.05311203	1.0
[LeftHandIndex2]
17	36.76399994	0	0	-0.2638212442	1.73593843	-17.2815876	1.0
18	36.76399994	0	0	-0.262601167	1.732015967	-17.24130249	1.0
19	36.76399994	0	0	-0.2607501149	1.726047873	-17.17993355	1.0
20	36.76399994	0	0	-0.259110868	1.720731616	-17.12537766	1.0
[LeftHandIndex3]
17	28.83100128	0	0	-0.05607745051	0.8076936007	-7.942883492	1.0
18	28.83100128	0	0	-0.05549048632	0.8034814596	-7.901192665	1.0
19	28.83100128	0	0	-0.05462032184	0.7971894145	-7.838947773	1.0
20	28.83100128	0	0	-0.05386115983	0.7916711569	-7.784300804	1.0
[LeftHandIndex4]
17	23.92700005	0	0	0	0	0	1.0
18	23.92700005	0	0	0	0	0	1.0
19	23.92700005	0	0	0	0	0	1.0
20	23.92700005	0	0	0	0	0	1.0
[LeftHandMiddle1]
17	95.33399963	0	0	-1.052049518	2.995892763	-19.38202858	1.0
18	95.33399963	0	0	-1.056370139	2.811967611	-19.44600105	1.0
19	95.33399963	0	0	-1.017558336	2.701803923	-18.91387367	1.0
20	95.33399963	0	0	-0.9847207665	2.713049173	-18.45607567	1.0
[LeftHandMiddle2]
17	36.98199844	0	0	-0.2407408655	1.659973145	-16.50266838	1.0
18	36.98199844	0	0	-0.2420088202	1.664244175	-16.54637337	1.0
19	36.98199844	0	0	-0.2408145368	1.660219073	-16.50522995	1.0
20	36.98199844	0	0	-0.2390328795	1.654206395	-16.44368362	1.0
[LeftHandMiddle3]
17	29.50900078	0	0	-0.2708162963	1.758253813	-17.51103783	1.0
18	29.50900078	0	0	-0.2721585929	1.762505054	-17.55479431	1.0
19	29.50900078	0	0	-0.2709007263	1.758532405	-17.51384544	1.0
20	29.50900078	0	0	-0.2690121233	1.752528429	-17.45208931	1.0
[LeftHandMiddle4]
17	28.3390007	0	0	0	0	0	1.0
18	28.3390007	0	0	0	0	0	1.0
19	28.3390007	0	0	0	0	0	1.0
20	28.3390007	0	0	0	0	0	1.0
[LeftHandRing1]
17	91.04499817	-0.4390000105	-18.65100098	-1.361062527	3.559289217	-23.45140839	1.0
18	91.04499817	-0.4390000105	-18.65100098	-1.381092906	3.572751522	-23.70552063	1.0
19	91.04499817	-0.4390000105	-18.65100098	-1.400830269	3.586036205	-23.95491219	1.0
20	91.04499817	-0.4390000105	-18.65100098	-1.42017436	3.599113464	-24.19831467	1.0
[LeftHandRing2]
17	31.54000092	0	0	-0.5278517604	2.426495314	-24.54214096	1.0
18	31.54000092	0	0	-0.5375941992	2.447699785	-24.77126694	1.0
19	31.54000092	0	0	-0.5465989709	2.467096567	-24.98124886	1.0
20	31.54000092	0	0	-0.5548303127	2.484675646	-25.17179871	1.0
[LeftHandRing3]
17	29.37700081	0	0	-0.4067442715	2.141715765	-21.50405121	1.0
18	29.37700081	0	0	-0.4153934121	2.16353178	-21.73432159	1.0
19	29.37700081	0	0	-0.4233942926	2.183484793	-21.94535255	1.0
20	29.37700081	0	0	-0.4307234883	2.201574564	-22.13690948	1.0
[LeftHandRing4]
17	26.47500038	0	0	0	0	0	1.0
18	26.47500038	0	0	0	0	0	1.0
19	26.47500038	0	0	0	0	0	1.0
20	26.47500038	0	0	0	0	0	1.0
[LeftHandPinky1]
17	80.77799988	-4.887000084	-38.06099701	-3.397865295	4.99217701	-36.38801193	1.0
18	80.77799988	-4.887000084	-38.06099701	-3.708388329	4.722694874	-36.85444641	1.0
19	80.77799988	-4.887000084	-38.06099701	-3.919302464	4.499553204	-36.92690277	1.0
20	80.77799988	-4.887000084	-38.06099701	-4.046624184	4.373894215	-37.03050613	1.0
[LeftHandPinky2]
17	36	0	0	-0.4149624109	2.162452936	-21.7228775	1.0
18	36	0	0	-0.4339993	2.209604979	-22.22200966	1.0
19	36	0	0	-0.4398060739	2.22375226	-22.37215614	1.0
20	36	0	0	-0.43979159	2.223716736	-22.3717823	1.0
[LeftHandPinky3]
17	21.14200211	0	0	-0.381652981	2.076960564	-20.82242203	1.0
18	21.14200211	0	0	-0.3999460638	2.12440443	-21.32152748	1.0
19	21.14200211	0	0	-0.4055312574	2.138648987	-21.47163773	1.0
20	21.14200211	0	0	-0.4055171013	2.138612986	-21.47127151	1.0
[LeftHandPinky4]
17	19.75699997	0	0	0	0	0	1.0
18	19.75699997	0	0	0	0	0	1.0
19	19.75699997	0	0	0	0	0	1.0
20	19.75699997	0	0	0	0	0	1.0
[RightShoulder]
17	-45.70000076	109.4620056	-26.28000069	5.616864681	21.56622696	10.43612194	1.0
18	-45.70000076	109.4620056	-26.28000069	6.012213707	19.96664047	12.47511673	1.0
19	-45.70000076	109.4620056	-26.28000069	5.979882717	18.59092331	13.27249146	1.0
20	-45.70000076	109.4620056	-26.28000069	5.805499077	17.90211678	13.26548672	1.0
[RightArm]
17	-105.9280014	-5.248000145	-22.32099915	31.42970276	15.88297939	66.31134033	1.0
18	-105.9280014	-5.248000145	-22.32099915	33.50979233	16.78092194	64.52924347	1.0
19	-105.9280014	-5.248000145	-22.32099915	33.30286407	16.69823456	64.28235626	1.0
20	-105.9280014	-5.248000145	-22.32099915	32.87490082	16.10310745	64.8484726	1.0
[RightForeArm]
17	-278.414978	0	0	5.443021109e-06	11.32992172	-4.197525243e-07	1.0
18	-278.414978	0	0	-3.376851282e-06	14.19815636	-1.721465196e-05	1.0
19	-278.414978	0	0	1.603409828e-06	16.75411797	-3.279022621e-06	1.0
20	-278.414978	0	0	-1.185074439e-06	17.97767639	-9.360002878e-06	1.0
[RightHand]
17	-283.2879944	0	0.0009999999311	-9.58161068	2.079155922	3.78500247	1.0
18	-283.2879944	0	0.0009999999311	-12.27982235	4.43451786	1.132287621	1.0
19	-283.2879944	0	0.0009999999311	-20.05868912	7.940955162	-0.01287047658	1.0
20	-283.2879944	0	0.0009999999311	-24.80660439	9.598622322	-0.03095037676	1.0
[RightHandPinky1]
17	-80.76699829	-4.885000229	-38.06000137	-4.806399345	-3.332034349	62.6100235	1.0
18	-80.76699829	-4.885000229	-38.06000137	-5.019582748	-3.185395479	64.78440857	1.0
19	-80.76699829	-4.885000229	-38.06000137	-5.252696991	-3.017867804	67.16444397	1.0
20	-80.76699829	-4.885000229	-38.06000137	-5.590817928	-2.741168261	70.60452271	1.0
[RightHandPinky2]
17	-36	0	0.0009999999311	-0.5183863044	-2.130697966	27.36501884	1.0
18	-36	0	0.0009999999311	-0.5232754946	-2.140114069	27.49619865	1.0
19	-36	0	0.0009999999311	-0.5120167136	-2.118340731	27.19298553	1.0
20	-36	0	0.0009999999311	-0.5028211474	-2.100346565	26.94329643	1.0
[RightHandPinky3]
17	-21.14200211	0	0	-0.4773056805	-2.049374342	26.21886253	1.0
18	-21.14200211	0	0	-0.4813403785	-2.057538986	26.33142281	1.0
19	-21.14200211	0	0	-0.4696837366	-2.033833981	26.00510788	1.0
20	-21.14200211	0	0	-0.4595947564	-2.013020992	25.71913719	1.0
[RightHandPinky4]
17	-19.75699997	0	0	0	0	0	1.0
18	-19.75699997	0	0	0	0	0	1.0
19	-19.75699997	0	0	0	0	0	1.0
20	-19.75699997	0	0	0	0	0	1.0
[RightHandRing1]
17	-91.03599548	-0.4390000105	-18.65100098	-3.600271702	-1.953611135	52.63827515	1.0
18	-91.03599548	-0.4390000105	-18.65100098	-3.745006561	-2.028425932	54.25865936	1.0
19	-91.03599548	-0.4390000105	-18.65100098	-3.85176897	-2.285918951	55.44724274	1.0
20	-91.03599548	-0.4390000105	-18.65100098	-4.005417347	-2.659339666	57.15252304	1.0
[RightHandRing2]
17	-31.54000092	0	0	-1.873219609	-3.721517563	53.42448425	1.0
18	-31.54000092	0	0	-1.916819215	-3.753403664	54.09349442	1.0
19	-31.54000092	0	0	-1.932335615	-3.764573097	54.33014679	1.0
20	-31.54000092	0	0	-1.977757931	-3.79669857	55.01890945	1.0
[RightHandRing3]
17	-29.37700081	0	0	-1.676529646	-3.567498207	50.33112335	1.0
18	-29.37700081	0	0	-1.718386531	-3.601714134	51.00052643	1.0
19	-29.37700081	0	0	-1.73350656	-3.61388731	51.24083328	1.0
20	-29.37700081	0	0	-1.777485609	-3.648692131	51.93514252	1.0
[RightHandRing4]
17	-26.47500038	0	0	0	0	0	1.0
18	-26.47500038	0	0	0	0	0	1.0
19	-26.47500038	0	0	0	0	0	1.0
20	-26.47500038	0	0	0	0	0	1.0
[RightHandMiddle1]
17	-95.32500458	0	0	-2.224206924	-5.601574898	36.48598099	1.0
18	-95.32500458	0	0	-2.403217316	-5.496315479	38.68703079	1.0
19	-95.32500458	0	0	-2.520508289	-5.370401859	40.10800171	1.0
20	-95.32500458	0	0	-2.670984268	-5.122623444	41.90845108	1.0
[RightHandMiddle2]
17	-36.98199844	0	0	-0.2627337277	-1.539070368	19.37397766	1.0
18	-36.98199844	0	0	-0.2698275149	-1.559100628	19.63628769	1.0
19	-36.98199844	0	0	-0.2777241468	-1.581044555	19.92446709	1.0
20	-36.98199844	0	0	-0.286719352	-1.605633497	20.24811172	1.0
[RightHandMiddle3]
17	-29.50900078	0	0	-0.2907537818	-1.618553162	20.39162254	1.0
18	-29.50900078	0	0	-0.2981504798	-1.63830471	20.65219116	1.0
19	-29.50900078	0	0	-0.3063916862	-1.659988642	20.93893623	1.0
20	-29.50900078	0	0	-0.3157661557	-1.684271097	21.26052094	1.0
[RightHandMiddle4]
17	-28.3390007	0	0.0009999999311	0	0	0	1.0
18	-28.3390007	0	0.0009999999311	0	0	0	1.0
19	-28.3390007	0	0.0009999999311	0	0	0	1.0
20	-28.3390007	0	0.0009999999311	0	0	0	1.0
[RightHandIndex1]
17	-91.08300018	-5.167999744	22.60099792	0.4536744058	-3.985613346	17.27953339	1.0
18	-91.08300018	-5.167999744	22.60099792	0.323664099	-4.060230732	19.23301888	1.0
19	-91.08300018	-5.167999744	22.60099792	0.2135029733	-4.234507084	21.09344482	1.0
20	-91.08300018	-5.167999744	22.60099792	0.0526401028	-4.396481514	23.53057289	1.0
[RightHandIndex2]
17	-36.76399994	0	0	-0.1621308476	-1.215805173	15.19073868	1.0
18	-36.76399994	0	0	-0.1603462845	-1.209227324	15.10650158	1.0
19	-36.76399994	0	0	-0.1626493484	-1.217711926	15.21504211	1.0
20	-36.76399994	0	0	-0.1683514416	-1.238492489	15.4810915	1.0
[RightHandIndex3]
17	-28.83100128	0	0	-0.02406282723	-0.4719832838	5.837532043	1.0
18	-28.83100128	0	0	-0.02337564901	-0.4651920795	5.753332138	1.0
19	-28.83100128	0	0	-0.02427290194	-0.4739348888	5.861824989	1.0
20	-28.83100128	0	0	-0.02651649155	-0.4953553081	6.127801895	1.0
[RightHandIndex4]
17	-23.92700005	0	0	0	0	0	1.0
18	-23.92700005	0	0	0	0	0	1.0
19	-23.92700005	0	0	0	0	0	1.0
20	-23.92700005	0	0	0	0	0	1.0
[RightHandThumb1]
17	-24.64799881	-15.72700024	26.82600021	-3.058220863	3.226742506	2.568546534	1.0
18	-24.64799881	-15.72700024	26.82600021	-3.10320282	3.418159485	2.414895296	1.0
19	-24.64799881	-15.72700024	26.82600021	-3.173322916	3.66416955	2.392843723	1.0
20	-24.64799881	-15.72700024	26.82600021	-3.323144913	4.151331902	2.532945395	1.0
[RightHandThumb2]
17	-32.29800034	-18.64699936	18.64699936	21.74642754	-23.47292137	-24.03339767	1.0
18	-32.29800034	-18.64699936	18.64699936	22.33447266	-23.96397781	-24.32127762	1.0
19	-32.29800034	-18.64699936	18.64699936	23.88497734	-25.21414185	-25.10737038	1.0
20	-32.29800034	-18.64699936	18.64699936	24.85688972	-27.20735359	-25.87716675	1.0
[RightHandThumb3]
17	-26.52600098	-15.31399918	15.31399918	-15.6917944	-4.273873806	-10.95284557	1.0
18	-26.52600098	-15.31399918	15.31399918	-15.78007412	-4.046438694	-10.92279816	1.0
19	-26.52600098	-15.31399918	15.31399918	-15.95472908	-3.595559835	-10.8598299	1.0
20	-26.52600098	-15.31399918	15.31399918	-15.69813538	-2.703071117	-11.21943474	1.0
[RightHandThumb4]
17	-19.54599953	-11.28499985	11.28499985	0	0	0	1.0
18	-19.54599953	-11.28499985	11.28499985	0	0	0	1.0
19	-19.54599953	-11.28499985	11.28499985	0	0	0	1.0
20	-19.54599953	-11.28499985	11.28499985	0	0	0	1.0
[LeftUpLeg]
17	82.07800293	-67.51699829	-15.99599934	-27.03042412	18.10648727	10.12187862	1.0
18	82.07800293	-67.51699829	-15.99599934	-28.13507271	18.13018227	10.3638258	1.0
19	82.07800293	-67.51699829	-15.99599934	-28.92197609	18.11446762	10.60542774	1.0
20	82.07800293	-67.51699829	-15.99599934	-29.2938385	18.15501404	10.88361073	1.0
[LeftLeg]
17	0	-443.7049866	2.845999956	26.31028557	-0.7321628332	3.5644629	1.0
18	0	-443.7049866	2.845999956	26.69931412	-1.074047089	3.567951202	1.0
19	0	-443.7049866	2.845999956	26.84556198	-1.481084585	3.499446869	1.0
20	0	-443.7049866	2.845999956	26.73998451	-1.868955851	3.358671188	1.0
[LeftFoot]
17	0	-444.2789917	-29.8219986	-1.083099246	0.4647778869	-6.761850357	1.0
18	0	-444.2789917	-29.8219986	-1.307761788	0.4568756521	-6.664124489	1.0
19	0	-444.2789917	-29.8219986	-1.108058333	0.476464361	-6.754926682	1.0
20	0	-444.2789917	-29.8219986	-0.7795550227	0.5062708855	-6.92327404	1.0
[LeftToeBase]
17	0	-87.28699493	107.1060028	-4.132452011	-6.531455256e-06	3.595336239e-06	1.0
18	0	-87.28699493	107.1060028	-4.07739687	3.449602218e-06	2.715513574e-06	1.0
19	0	-87.28699493	107.1060028	-4.058830261	-7.199868151e-07	1.824376227e-06	1.0
20	0	-87.28699493	107.1060028	-4.056546688	-2.649324415e-06	-2.097651986e-06	1.0
[RightUpLeg]
17	-82.07800293	-67.51699829	-15.99599934	-15.83924198	-6.89732933	10.56559753	1.0
18	-82.07800293	-67.51699829	-15.99599934	-16.64261055	-6.630588055	11.33875465	1.0
19	-82.07800293	-67.51699829	-15.99599934	-17.03264809	-6.363951683	12.02728748	1.0
20	-82.07800293	-67.51699829	-15.99599934	-17.03351021	-6.243600368	12.53375053	1.0
[RightLeg]
17	0	-443.7049866	2.861999989	18.39528656	-8.547794342	-6.326656342	1.0
18	0	-443.7049866	2.861999989	18.54659081	-8.490747452	-6.461182117	1.0
19	0	-443.7049866	2.861999989	18.30337143	-8.464076996	-6.625245094	1.0
20	0	-443.7049866	2.861999989	17.78141785	-8.506015778	-6.639886856	1.0
[RightFoot]
17	0	-444.2770081	-29.83799934	-6.93488884	-4.691394806	2.951239586	1.0
18	0	-444.2770081	-29.83799934	-6.987019539	-5.239116669	2.879765987	1.0
19	0	-444.2770081	-29.83799934	-6.809022427	-5.889457703	2.822272062	1.0
20	0	-444.2770081	-29.83799934	-6.417463779	-6.32072258	2.864726067	1.0
[RightToeBase]
17	0	-87.28699493	107.1060028	-6.992806911	1.215533939e-05	-1.05860056e-06	1.0
18	0	-87.28699493	107.1060028	-6.892748833	-2.266911459e-08	3.854696388e-06	1.0
19	0	-87.28699493	107.1060028	-6.83194685	1.577141461e-06	-5.58231136e-07	1.0
20	0	-87.28699493	107.1060028	-6.82450819	4.57533497e-06	-1.012952112e-06	1.0
[EndOfFile]
